<svg width="320" height="80" viewBox="0 0 320 80" fill="none" xmlns="http://www.w3.org/2000/svg">
  <defs>
    <linearGradient id="g1" x1="0" y1="0" x2="80" y2="80" gradientUnits="userSpaceOnUse">
      <stop stop-color="#2563EB"></stop>
      <stop offset="1" stop-color="#1D4ED8"></stop>
    </linearGradient>
  </defs>

  <!-- Icon -->
  <g transform="translate(8,8)">
    <rect x="0" y="0" width="64" height="64" rx="16" fill="url(#g1)"></rect>

    <!-- Window frame -->
    <rect x="14" y="14" width="36" height="36" rx="6" fill="white" fill-opacity="0.12" stroke="white" stroke-width="2"></rect>

    <!-- Mesh -->
    <path d="M20 20H44M20 26H44M20 32H44M20 38H44M20 44H44" stroke="white" stroke-opacity="0.9" stroke-width="1.4"></path>
    <path d="M20 20V44M26 20V44M32 20V44M38 20V44M44 20V44" stroke="white" stroke-opacity="0.9" stroke-width="1.4"></path>

    <!-- Check / precise selection -->
    <circle cx="48" cy="48" r="8" fill="#10B981"></circle>
    <path d="M44.8 48.2L47 50.4L51.4 46" stroke="white" stroke-width="2" stroke-linecap="round" stroke-linejoin="round"></path>
  </g>

  <!-- Brand text -->
  <g transform="translate(88,18)">
    <text x="0" y="22" font-family="Arial, Helvetica, sans-serif" font-size="24" font-weight="700" fill="#0F172A">
      Москитка
    </text>
    <text x="0" y="46" font-family="Arial, Helvetica, sans-serif" font-size="14" font-weight="500" fill="#64748B">
      калькулятор сеток
    </text>
  </g>
</svg>